<?xml version="1.0" encoding="UTF-8" standalone="no"?>
<svg
   id="Layer_1"
   data-name="Layer 1"
   viewBox="0 0 511.99998 512.00001"
   version="1.1"
   sodipodi:docname="IcoCopyResults.svg"
   width="512"
   height="512"
   inkscape:version="1.2.2 (b0a8486, 2022-12-01)"
   xmlns:inkscape="http://www.inkscape.org/namespaces/inkscape"
   xmlns:sodipodi="http://sodipodi.sourceforge.net/DTD/sodipodi-0.dtd"
   xmlns="http://www.w3.org/2000/svg"
   xmlns:svg="http://www.w3.org/2000/svg">
  <sodipodi:namedview
     id="namedview1631"
     pagecolor="#ffffff"
     bordercolor="#000000"
     borderopacity="0.25"
     inkscape:showpageshadow="2"
     inkscape:pageopacity="0.0"
     inkscape:pagecheckerboard="0"
     inkscape:deskcolor="#d1d1d1"
     showgrid="false"
     inkscape:zoom="1.3688427"
     inkscape:cx="201.63018"
     inkscape:cy="248.385"
     inkscape:window-width="1440"
     inkscape:window-height="900"
     inkscape:window-x="0"
     inkscape:window-y="0"
     inkscape:window-maximized="0"
     inkscape:current-layer="Layer_1" />
  <defs
     id="defs1588">
    <style
       id="style1586">.cls-1{fill:#fff;}.cls-2{fill:#00b2b1;}.cls-3{fill:#e2e6e6;}.cls-4{fill:#999;}.cls-5{fill:#4a95cc;}.cls-6{fill:#3077ac;}.cls-7{fill:#438ec4;}</style>
  </defs>
  <path
     class="cls-1"
     d="M 237.06,500.77 A 44.23,44.23 0 0 1 192.83,456.54 V 449 H 80.17 A 16.17,16.17 0 0 1 64,432.81 V 44.57 A 16.17,16.17 0 0 1 80.17,28.4 h 97.49 L 201.32,8.51 A 19.21,19.21 0 0 1 213.68,4 h 25.59 a 19.21,19.21 0 0 1 12.36,4.51 l 23.66,19.89 h 97.49 A 16.17,16.17 0 0 1 389,44.57 V 152 h 34 a 44.23,44.23 0 0 1 44.23,44.23 v 233.65 l -68.78,70.89 z"
     id="path1590" />
  <rect
     class="cls-2"
     x="79.589996"
     y="43.990002"
     width="293.76999"
     height="389.41"
     id="rect1592" />
  <polygon
     class="cls-1"
     points="46.37,75.39 46.37,396.34 222.78,396.34 278.58,338.8 278.58,75.39 "
     id="polygon1594"
     transform="translate(64,4)" />
  <circle
     class="cls-3"
     cx="155.95999"
     cy="353.70999"
     r="21.889999"
     id="circle1596" />
  <rect
     class="cls-3"
     x="124.35"
     y="194.5"
     width="204.17999"
     height="5.96"
     id="rect1598" />
  <rect
     class="cls-3"
     x="124.35"
     y="176.16"
     width="204.17999"
     height="5.96"
     id="rect1600" />
  <rect
     class="cls-3"
     x="124.35"
     y="157.81"
     width="204.17999"
     height="5.96"
     id="rect1602" />
  <rect
     class="cls-3"
     x="124.35"
     y="139.47"
     width="204.17999"
     height="5.96"
     id="rect1604" />
  <rect
     class="cls-3"
     x="124.35"
     y="121.13"
     width="204.17999"
     height="5.96"
     id="rect1606" />
  <rect
     class="cls-3"
     x="124.35"
     y="102.79"
     width="204.17999"
     height="5.96"
     id="rect1608" />
  <rect
     class="cls-3"
     x="208.10001"
     y="19.59"
     width="36.759998"
     height="66.919998"
     id="rect1610" />
  <polygon
     class="cls-4"
     points="144.1,20.26 144.1,39.99 119.07,39.99 "
     id="polygon1612"
     transform="translate(64,4)" />
  <polygon
     class="cls-4"
     points="180.85,20.26 180.85,39.99 205.88,39.99 "
     id="polygon1614"
     transform="translate(64,4)" />
  <path
     class="cls-5"
     d="M 391.76,485.18 H 237.06 A 28.64,28.64 0 0 1 208.42,456.54 V 196.2 a 28.64,28.64 0 0 1 28.64,-28.64 h 185.85 a 28.64,28.64 0 0 1 28.64,28.64 v 227.36 z"
     id="path1616" />
  <polygon
     class="cls-6"
     points="327.76,419.43 387.55,419.43 327.76,481.18 "
     id="polygon1618"
     transform="translate(64,4)" />
  <polygon
     class="cls-7"
     points="327.76,481.18 267.97,481.18 327.76,419.43 "
     id="polygon1620"
     transform="translate(64,4)" />
  <rect
     class="cls-1"
     x="242.89"
     y="212.02"
     width="174.2"
     height="23.07"
     id="rect1622" />
  <rect
     class="cls-1"
     x="242.89"
     y="260.03"
     width="174.2"
     height="23.07"
     id="rect1624" />
  <rect
     class="cls-1"
     x="242.89"
     y="308.03"
     width="174.2"
     height="23.07"
     id="rect1626" />
  <rect
     class="cls-1"
     x="242.89"
     y="356.03"
     width="125.73"
     height="23.07"
     id="rect1628" />
</svg>
