<?xml version="1.0" encoding="UTF-8" standalone="no"?>
<svg
   id="Layer_1"
   data-name="Layer 1"
   viewBox="0 0 511.99999 512"
   version="1.1"
   sodipodi:docname="IcoCopySelected.svg"
   width="512"
   height="512"
   inkscape:version="1.2.2 (b0a8486, 2022-12-01)"
   xmlns:inkscape="http://www.inkscape.org/namespaces/inkscape"
   xmlns:sodipodi="http://sodipodi.sourceforge.net/DTD/sodipodi-0.dtd"
   xmlns="http://www.w3.org/2000/svg"
   xmlns:svg="http://www.w3.org/2000/svg">
  <sodipodi:namedview
     id="namedview1958"
     pagecolor="#ffffff"
     bordercolor="#000000"
     borderopacity="0.25"
     inkscape:showpageshadow="2"
     inkscape:pageopacity="0.0"
     inkscape:pagecheckerboard="0"
     inkscape:deskcolor="#d1d1d1"
     showgrid="false"
     inkscape:zoom="1.4137214"
     inkscape:cx="217.15735"
     inkscape:cy="240.5"
     inkscape:window-width="1440"
     inkscape:window-height="900"
     inkscape:window-x="0"
     inkscape:window-y="0"
     inkscape:window-maximized="0"
     inkscape:current-layer="Layer_1" />
  <defs
     id="defs1935">
    <style
       id="style1933">.cls-1{fill:#fff;}.cls-2{fill:#4a95cc;}.cls-3{fill:#3077ac;}.cls-4{fill:#438ec4;}</style>
  </defs>
  <path
     class="cls-1"
     d="M 103.11,279.41 V 251.24 H 147 V 220.78 H 103.11 V 192.6 H 147 V 162.14 H 103.11 V 134 H 147 v -19 a 51.82,51.82 0 0 1 1.3,-11.49 H 103.11 V 75.32 h 62.32 v 0 A 51.76,51.76 0 0 1 199,63 H 375 V 56 A 52,52 0 0 0 323,4 H 96 A 52,52 0 0 0 44,56 v 318 a 52,52 0 0 0 52,52 h 51 V 279.41 Z"
     id="path1937" />
  <path
     class="cls-2"
     d="M 103.11,279.41 V 251.24 H 147 V 220.78 H 103.11 V 192.6 H 147 V 162.14 H 103.11 V 134 H 147 v -19 a 51.82,51.82 0 0 1 1.3,-11.49 H 103.11 V 75.32 h 62.32 v 0 A 51.76,51.76 0 0 1 199,63 H 358 V 56 A 35,35 0 0 0 323,21 H 96 A 35,35 0 0 0 61,56 v 318 a 35,35 0 0 0 35,35 h 51 V 279.41 Z"
     id="path1939" />
  <path
     class="cls-1"
     d="M 426,63 H 199 a 51.76,51.76 0 0 0 -33.57,12.34 v 0 H 103.11 V 103.5 H 148.3 A 51.82,51.82 0 0 0 147,115 v 19 h -43.89 v 28.18 H 147 v 30.42 h -43.89 v 28.18 H 147 v 30.46 h -43.89 v 28.17 H 147 V 433 a 52,52 0 0 0 52,52 H 395.17 L 478,399.61 V 115 A 52,52 0 0 0 426,63 Z"
     id="path1941" />
  <path
     class="cls-2"
     d="M 388,468 H 199 A 35,35 0 0 1 164,433 V 115 a 35,35 0 0 1 35,-35 h 227 a 35,35 0 0 1 35,35 v 277.72 z"
     id="path1943" />
  <polygon
     class="cls-3"
     points="417,388.56 343.97,464 343.97,388.56 "
     id="polygon1945"
     transform="translate(44,4)" />
  <polygon
     class="cls-4"
     points="270.94,464 343.97,388.56 343.97,464 "
     id="polygon1947"
     transform="translate(44,4)" />
  <rect
     class="cls-1"
     x="206.11"
     y="134.32001"
     width="212.78999"
     height="28.18"
     id="rect1949" />
  <rect
     class="cls-1"
     x="206.11"
     y="192.96001"
     width="212.78999"
     height="28.18"
     id="rect1951" />
  <rect
     class="cls-1"
     x="206.11"
     y="251.60001"
     width="212.78999"
     height="28.18"
     id="rect1953" />
  <rect
     class="cls-1"
     x="206.11"
     y="310.23999"
     width="153.58"
     height="28.18"
     id="rect1955" />
</svg>
