<?xml version="1.0" encoding="UTF-8" standalone="no"?>
<svg
   id="Layer_1"
   data-name="Layer 1"
   viewBox="0 0 512.00001 512.00001"
   version="1.1"
   sodipodi:docname="IcoClear.svg"
   width="512"
   height="512"
   inkscape:version="1.2.2 (b0a8486, 2022-12-01)"
   xmlns:inkscape="http://www.inkscape.org/namespaces/inkscape"
   xmlns:sodipodi="http://sodipodi.sourceforge.net/DTD/sodipodi-0.dtd"
   xmlns="http://www.w3.org/2000/svg"
   xmlns:svg="http://www.w3.org/2000/svg">
  <sodipodi:namedview
     id="namedview1501"
     pagecolor="#ffffff"
     bordercolor="#000000"
     borderopacity="0.25"
     inkscape:showpageshadow="2"
     inkscape:pageopacity="0.0"
     inkscape:pagecheckerboard="0"
     inkscape:deskcolor="#d1d1d1"
     showgrid="false"
     inkscape:zoom="1.3763789"
     inkscape:cx="247.025"
     inkscape:cy="247.025"
     inkscape:window-width="1440"
     inkscape:window-height="900"
     inkscape:window-x="0"
     inkscape:window-y="0"
     inkscape:window-maximized="0"
     inkscape:current-layer="Layer_1" />
  <defs
     id="defs1494">
    <style
       id="style1492">.cls-1{fill:#fff;}.cls-2{fill:#ed2326;}</style>
  </defs>
  <path
     class="cls-1"
     d="m 390.57,498.05 a 51.82,51.82 0 0 1 -36.9,-15.29 L 257,386.12 160.36,482.76 a 52.18,52.18 0 0 1 -73.81,0 L 25.29,421.48 a 52.18,52.18 0 0 1 0,-73.81 L 121.93,251 25.29,154.38 a 52.18,52.18 0 0 1 0,-73.81 L 86.57,19.29 a 52.18,52.18 0 0 1 73.81,0 L 257,115.93 353.65,19.29 a 52.18,52.18 0 0 1 73.81,0 l 61.28,61.28 a 52.25,52.25 0 0 1 0,73.81 l -96.62,96.62 96.64,96.65 a 52.25,52.25 0 0 1 0,73.81 l -61.28,61.28 a 51.86,51.86 0 0 1 -36.91,15.31 z"
     id="path1496" />
  <path
     class="cls-2"
     d="M 364.06,251 474.73,140.35 a 32.36,32.36 0 0 0 0,-45.75 L 413.45,33.32 a 32.34,32.34 0 0 0 -45.75,0 L 257,144 146.35,33.32 a 32.34,32.34 0 0 0 -45.75,0 L 39.32,94.6 a 32.34,32.34 0 0 0 0,45.75 L 150,251 39.32,361.7 a 32.33,32.33 0 0 0 0,45.74 l 61.28,61.29 a 32.36,32.36 0 0 0 45.75,0 L 257,358.06 367.7,468.73 a 32.36,32.36 0 0 0 45.75,0 l 61.28,-61.29 a 32.34,32.34 0 0 0 0,-45.74 z"
     id="path1498" />
</svg>
