<?xml version="1.0" encoding="UTF-8" standalone="no"?>
<svg
   id="Layer_1"
   data-name="Layer 1"
   viewBox="0 0 511.99999 512"
   version="1.1"
   sodipodi:docname="IcoFilterA.svg"
   width="512"
   height="512"
   inkscape:version="1.2.2 (b0a8486, 2022-12-01)"
   xmlns:inkscape="http://www.inkscape.org/namespaces/inkscape"
   xmlns:sodipodi="http://sodipodi.sourceforge.net/DTD/sodipodi-0.dtd"
   xmlns="http://www.w3.org/2000/svg"
   xmlns:svg="http://www.w3.org/2000/svg">
  <sodipodi:namedview
     id="namedview2132"
     pagecolor="#ffffff"
     bordercolor="#000000"
     borderopacity="0.25"
     inkscape:showpageshadow="2"
     inkscape:pageopacity="0.0"
     inkscape:pagecheckerboard="0"
     inkscape:deskcolor="#d1d1d1"
     showgrid="false"
     inkscape:zoom="1.1330747"
     inkscape:cx="306.24637"
     inkscape:cy="226.81647"
     inkscape:window-width="1440"
     inkscape:window-height="900"
     inkscape:window-x="0"
     inkscape:window-y="0"
     inkscape:window-maximized="0"
     inkscape:current-layer="Layer_1" />
  <defs
     id="defs2119">
    <style
       id="style2117">.cls-1{fill:#fff;}.cls-2{fill:#356b98;}.cls-3{fill:#285886;}.cls-4{fill:#0a79bf;}</style>
  </defs>
  <path
     class="cls-1"
     d="M 411,453.94 A 42.47,42.47 0 0 1 380.76,441.41 L 278.25,338.93 a 146.59,146.59 0 0 1 -69.16,17.25 C 128,356.18 62,290.2 62,209.09 62,127.98 128,62 209.09,62 c 81.09,0 147.09,66 147.09,147.09 A 146.64,146.64 0 0 1 338.8,278.5 l 102.42,102.43 a 42.77,42.77 0 0 1 -30.24,73 z"
     id="path2121" />
  <path
     class="cls-2"
     d="m 277.44656,316.07849 38.43832,-38.43833 114.31795,114.31796 a 27.18,27.18 0 0 1 -0.0353,38.40297 v 0 a 27.18,27.18 0 0 1 -38.43833,0 z"
     id="path2123" />
  <path
     class="cls-3"
     d="m 280.74,319.37 6.79,6.79 A 141.44,141.44 0 0 0 326,287.77 l -6.79,-6.8 a 132.34,132.34 0 0 1 -38.47,38.4 z"
     id="path2125" />
  <path
     class="cls-4"
     d="m 209.09,77.59 a 131.5,131.5 0 1 0 131.5,131.5 131.51,131.51 0 0 0 -131.5,-131.5 z m 0,221.12 a 89.62,89.62 0 1 1 89.62,-89.62 89.62,89.62 0 0 1 -89.62,89.62 z"
     id="path2127" />
  <path
     class="cls-4"
     d="m 235.74,226.43 h -48.37 l -4.86,12.14 h 4.86 q 7.19,0 10.25,2.77 a 9.29,9.29 0 0 1 3.06,7.23 9.17,9.17 0 0 1 -3.06,7.14 q -3.06,2.78 -10.25,2.77 h -26.81 q -7.19,0 -10.24,-2.77 a 10,10 0 0 1 0.14,-14.52 q 3.21,-2.81 10.59,-2.62 l 31.27,-77.89 h -13 q -7.19,0 -10.25,-2.77 a 10.08,10.08 0 0 1 0,-14.47 q 3.06,-2.77 10.25,-2.77 l 43,0.1 39.68,97.8 q 7,0 9.23,1.55 a 9.94,9.94 0 0 1 4.47,8.45 9.27,9.27 0 0 1 -3,7.14 q -3,2.78 -10.2,2.77 h -26.86 q -7.19,0 -10.25,-2.77 a 9.3,9.3 0 0 1 -3,-7.23 9.2,9.2 0 0 1 3,-7.14 q 3.06,-2.78 10.25,-2.77 h 4.86 z m -8.26,-19.91 -16,-39.43 -16.12,39.43 z"
     id="path2129" />
</svg>
