<?xml version="1.0" encoding="UTF-8" standalone="no"?>
<svg
   id="Layer_1"
   data-name="Layer 1"
   viewBox="0 0 511.99999 512"
   version="1.1"
   sodipodi:docname="IcoFilterSubA.svg"
   width="512"
   height="512"
   inkscape:version="1.2.2 (b0a8486, 2022-12-01)"
   xmlns:inkscape="http://www.inkscape.org/namespaces/inkscape"
   xmlns:sodipodi="http://sodipodi.sourceforge.net/DTD/sodipodi-0.dtd"
   xmlns="http://www.w3.org/2000/svg"
   xmlns:svg="http://www.w3.org/2000/svg">
  <sodipodi:namedview
     id="namedview2301"
     pagecolor="#ffffff"
     bordercolor="#000000"
     borderopacity="0.25"
     inkscape:showpageshadow="2"
     inkscape:pageopacity="0.0"
     inkscape:pagecheckerboard="0"
     inkscape:deskcolor="#d1d1d1"
     showgrid="false"
     inkscape:zoom="1.3294265"
     inkscape:cx="260.26261"
     inkscape:cy="250.48395"
     inkscape:window-width="1440"
     inkscape:window-height="900"
     inkscape:window-x="0"
     inkscape:window-y="0"
     inkscape:window-maximized="0"
     inkscape:current-layer="Layer_1" />
  <defs
     id="defs2288">
    <style
       id="style2286">.cls-1{fill:#fff;}.cls-2{fill:#356b98;}.cls-3{fill:#285886;}.cls-4{fill:#0a79bf;}</style>
  </defs>
  <path
     class="cls-1"
     d="M 407,443.94 A 42.47,42.47 0 0 1 376.76,431.41 L 274.25,328.93 a 146.59,146.59 0 0 1 -69.16,17.25 C 124,346.18 58,280.2 58,199.09 58,117.98 124,52 205.09,52 c 81.09,0 147.09,66 147.09,147.09 A 146.64,146.64 0 0 1 334.8,268.5 l 102.42,102.43 a 42.77,42.77 0 0 1 -30.24,73 z"
     id="path2290" />
  <path
     class="cls-2"
     d="m 273.44656,306.07849 38.43832,-38.43833 114.31795,114.31796 a 27.18,27.18 0 0 1 -0.0353,38.40297 v 0 a 27.18,27.18 0 0 1 -38.43833,0 z"
     id="path2292" />
  <path
     class="cls-3"
     d="m 276.74,309.37 6.79,6.79 A 141.44,141.44 0 0 0 322,277.77 l -6.79,-6.8 a 132.34,132.34 0 0 1 -38.47,38.4 z"
     id="path2294" />
  <path
     class="cls-4"
     d="m 205.09,67.59 a 131.5,131.5 0 1 0 131.5,131.5 131.51,131.51 0 0 0 -131.5,-131.5 z m 0,221.12 a 89.62,89.62 0 1 1 89.62,-89.62 89.62,89.62 0 0 1 -89.62,89.62 z"
     id="path2296" />
  <path
     class="cls-4"
     d="m 223.58,241 v -4.67 a 64.32,64.32 0 0 1 -16.51,6 77.29,77.29 0 0 1 -16.41,2 q -16,0 -26,-8.5 -10,-8.5 -10.03,-18.83 0,-12.54 12.77,-23.27 Q 180.17,183 202.7,183 a 131.53,131.53 0 0 1 20.88,1.94 v -4.75 a 8.68,8.68 0 0 0 -3.83,-7.29 q -3.84,-2.9 -14.62,-2.9 -8.83,0 -22.92,3.5 a 37.61,37.61 0 0 1 -8.16,1.26 9,9 0 0 1 -6.75,-2.86 10.15,10.15 0 0 1 -2.77,-7.33 9.33,9.33 0 0 1 1,-4.37 7.85,7.85 0 0 1 2.72,-3 32.51,32.51 0 0 1 7.29,-2.67 136.89,136.89 0 0 1 15,-3.25 89.72,89.72 0 0 1 13.89,-1.22 q 18.56,0 28.8,8 10.24,8 10.24,21.9 v 41 h 3.4 q 7.19,0 10.25,2.76 a 9.31,9.31 0 0 1 3.08,7.28 9.2,9.2 0 0 1 -3.06,7.14 q -3.06,2.76 -10.25,2.77 z m 0,-35.65 a 116,116 0 0 0 -22,-2.33 q -12.15,0 -20.89,5.92 -5.43,3.8 -5.43,7.68 a 5.26,5.26 0 0 0 2.62,4.56 q 4.86,3.21 13.3,3.21 a 55.49,55.49 0 0 0 16.27,-2.82 59.51,59.51 0 0 0 16.17,-7.67 z"
     id="path2298" />
</svg>
