<?xml version="1.0" encoding="UTF-8" standalone="no"?>
<svg
   id="Layer_1"
   data-name="Layer 1"
   viewBox="0 0 511.99999 512"
   version="1.1"
   sodipodi:docname="IcoFilterSubB.svg"
   width="512"
   height="512"
   inkscape:version="1.2.2 (b0a8486, 2022-12-01)"
   xmlns:inkscape="http://www.inkscape.org/namespaces/inkscape"
   xmlns:sodipodi="http://sodipodi.sourceforge.net/DTD/sodipodi-0.dtd"
   xmlns="http://www.w3.org/2000/svg"
   xmlns:svg="http://www.w3.org/2000/svg">
  <sodipodi:namedview
     id="namedview2381"
     pagecolor="#ffffff"
     bordercolor="#000000"
     borderopacity="0.25"
     inkscape:showpageshadow="2"
     inkscape:pageopacity="0.0"
     inkscape:pagecheckerboard="0"
     inkscape:deskcolor="#d1d1d1"
     showgrid="false"
     inkscape:zoom="0.86932536"
     inkscape:cx="284.12837"
     inkscape:cy="257.67108"
     inkscape:window-width="1440"
     inkscape:window-height="900"
     inkscape:window-x="0"
     inkscape:window-y="0"
     inkscape:window-maximized="0"
     inkscape:current-layer="Layer_1" />
  <defs
     id="defs2368">
    <style
       id="style2366">.cls-1{fill:#fff;}.cls-2{fill:#356b98;}.cls-3{fill:#285886;}.cls-4{fill:#0a79bf;}</style>
  </defs>
  <path
     class="cls-1"
     d="M 409,447.94 A 42.47,42.47 0 0 1 378.76,435.41 L 276.25,332.93 a 146.59,146.59 0 0 1 -69.16,17.25 C 126,350.18 60,284.2 60,203.09 60,121.98 126,56 207.09,56 c 81.09,0 147.09,66 147.09,147.09 A 146.64,146.64 0 0 1 336.8,272.5 l 102.42,102.43 a 42.77,42.77 0 0 1 -30.24,73 z"
     id="path2370" />
  <path
     class="cls-2"
     d="m 275.44656,310.07849 38.43832,-38.43833 114.31795,114.31796 a 27.18,27.18 0 0 1 -0.0353,38.40297 v 0 a 27.18,27.18 0 0 1 -38.43833,0 z"
     id="path2372" />
  <path
     class="cls-3"
     d="m 278.74,313.37 6.79,6.79 A 141.44,141.44 0 0 0 324,281.77 l -6.79,-6.8 a 132.34,132.34 0 0 1 -38.47,38.4 z"
     id="path2374" />
  <path
     class="cls-4"
     d="m 207.09,71.59 a 131.5,131.5 0 1 0 131.5,131.5 131.51,131.51 0 0 0 -131.5,-131.5 z m 0,221.12 a 89.62,89.62 0 1 1 89.62,-89.62 89.62,89.62 0 0 1 -89.62,89.62 z"
     id="path2376" />
  <path
     class="cls-4"
     d="m 192.56,139 v 44.67 a 60.43,60.43 0 0 1 14.81,-7.14 50.34,50.34 0 0 1 15.2,-2.38 q 20.69,0 35.06,14.28 A 46.84,46.84 0 0 1 272,222.89 q 0,19.34 -13.7,32.29 -13.7,12.95 -36.13,13 a 57.29,57.29 0 0 1 -15.34,-2 60.85,60.85 0 0 1 -14.28,-6 V 265 h -23.3 q -7.19,0 -10.25,-2.77 a 9.31,9.31 0 0 1 -3.06,-7.24 9.14,9.14 0 0 1 3.11,-7.14 q 3.11,-2.76 10.2,-2.76 h 3.4 v -86.2 h -3.4 q -7.19,0 -10.25,-2.77 a 9.31,9.31 0 0 1 -3.06,-7.24 9.2,9.2 0 0 1 3.06,-7.14 Q 162.06,139 169.25,139 Z m 59.53,84.49 a 28.26,28.26 0 0 0 -8.64,-20.88 30.37,30.37 0 0 0 -42.25,0 27.92,27.92 0 0 0 -8.64,20.59 23.24,23.24 0 0 0 7.77,18 q 7.77,7 21.95,7 14.18,0 22,-7 a 22.85,22.85 0 0 0 7.81,-17.73 z"
     id="path2378" />
</svg>
