<?xml version="1.0" encoding="UTF-8" standalone="no"?>
<svg
   id="Layer_1"
   data-name="Layer 1"
   viewBox="0 0 511.99999 511.99999"
   version="1.1"
   sodipodi:docname="IcoResults.svg"
   width="512"
   height="512"
   inkscape:version="1.2.2 (b0a8486, 2022-12-01)"
   xmlns:inkscape="http://www.inkscape.org/namespaces/inkscape"
   xmlns:sodipodi="http://sodipodi.sourceforge.net/DTD/sodipodi-0.dtd"
   xmlns="http://www.w3.org/2000/svg"
   xmlns:svg="http://www.w3.org/2000/svg">
  <sodipodi:namedview
     id="namedview2750"
     pagecolor="#ffffff"
     bordercolor="#000000"
     borderopacity="0.25"
     inkscape:showpageshadow="2"
     inkscape:pageopacity="0.0"
     inkscape:pagecheckerboard="0"
     inkscape:deskcolor="#d1d1d1"
     showgrid="false"
     inkscape:zoom="0.98441286"
     inkscape:cx="252.94265"
     inkscape:cy="240.75264"
     inkscape:window-width="1440"
     inkscape:window-height="900"
     inkscape:window-x="0"
     inkscape:window-y="0"
     inkscape:window-maximized="0"
     inkscape:current-layer="Layer_1" />
  <defs
     id="defs2719">
    <style
       id="style2717">.cls-1{fill:#fff;}.cls-2{fill:#00b2b1;}.cls-3{fill:#e2e6e6;}.cls-4{fill:#999;}</style>
  </defs>
  <path
     class="cls-1"
     d="m 397,47.9 h -90.51 a 10,10 0 0 1 -6.17,-2.14 l -5,-4 C 292.88,39.89 282,24 276.5,24 h -45.65 c -5.5,0 -16.38,15.89 -18.78,17.78 l -5,4 a 10,10 0 0 1 -6.16,2.14 H 110.34 A 20.33,20.33 0 0 0 90,68.23 V 448.65 A 20.33,20.33 0 0 0 110.34,469 H 397 a 20.34,20.34 0 0 0 20.34,-20.33 V 68.23 A 20.34,20.34 0 0 0 397,47.9 Z"
     id="path2721" />
  <rect
     class="cls-2"
     x="109.84"
     y="67.740005"
     width="287.73001"
     height="381.39999"
     id="rect2723" />
  <polygon
     class="cls-1"
     points="49.99,78.42 49.99,392.76 222.78,392.76 277.43,336.4 277.43,78.42 "
     id="polygon2725"
     transform="translate(90,24)" />
  <polygon
     class="cls-3"
     points="222.86,392.76 222.86,336.4 277.43,336.4 "
     id="polygon2727"
     transform="translate(90,24)" />
  <circle
     class="cls-3"
     cx="184.64"
     cy="371.10001"
     r="21.440001"
     id="circle2729" />
  <rect
     class="cls-3"
     x="153.67999"
     y="215.14999"
     width="199.98"
     height="5.8400002"
     id="rect2731" />
  <rect
     class="cls-3"
     x="153.67999"
     y="197.19"
     width="199.98"
     height="5.8400002"
     id="rect2733" />
  <rect
     class="cls-3"
     x="153.67999"
     y="179.22"
     width="199.98"
     height="5.8400002"
     id="rect2735" />
  <rect
     class="cls-3"
     x="153.67999"
     y="161.25999"
     width="199.98"
     height="5.8400002"
     id="rect2737" />
  <rect
     class="cls-3"
     x="153.67999"
     y="143.29001"
     width="199.98"
     height="5.8400002"
     id="rect2739" />
  <rect
     class="cls-3"
     x="153.67999"
     y="125.33"
     width="199.98"
     height="5.8400002"
     id="rect2741" />
  <rect
     class="cls-3"
     x="235.71001"
     y="43.84"
     width="36"
     height="65.540001"
     id="rect2743" />
  <polygon
     class="cls-4"
     points="121.19,43.74 145.71,24.41 145.71,43.74 "
     id="polygon2745"
     transform="translate(90,24)" />
  <polygon
     class="cls-4"
     points="206.22,43.74 181.71,24.41 181.71,43.74 "
     id="polygon2747"
     transform="translate(90,24)" />
</svg>
