<?xml version="1.0" encoding="UTF-8"?>
<svg width="512" height="512" data-name="Layer 1" version="1.1" viewBox="0 0 512 512" xmlns="http://www.w3.org/2000/svg">
 <defs>
  <style>.cls-1{fill:#fff;}.cls-2{fill:#0a79bf;}</style>
 </defs>
 <path class="cls-1" d="m377.08 69.087a65.83 65.83 0 1 0-96.72 58.1h-1.93c-22.23 0-43.54 10.59-61.45 20.94-33.26 19.19-67.89 66.5-69.35 68.51a19 19 0 0 0-3.63 11.17v27.84c0 17.66 22 25.76 33.45 12.32 0.64-0.76 13.29-15.61 26.45-31.91-17.65 56.56-54.58 179.82-57.57 195.2-7.33 37.73 13.75 58.11 32.73 68.55a70.47 70.47 0 0 0 34.4 8.45c24.75 0 52.91-11.25 75.33-30.08 26.74-22.46 50-58.88 50.94-60.42a18.94 18.94 0 0 0 3-10.16v-29.29c0-18.25-23.23-26-34.18-11.39-7.33 9.77-18.38 23.88-28.33 35.69 18-59.33 54.89-180.11 58.43-190 4.06-11.36 4.19-26.06 0.36-39.31a63.7 63.7 0 0 0-29.73-38.17l-0.49-0.26c0.84 0 1.67 0.06 2.51 0.06a65.9 65.9 0 0 0 65.78-65.84z"/>
 <circle class="cls-2" cx="311.25" cy="69.087" r="46.83"/>
 <path class="cls-2" d="m163 227.81v27.84s19-22.39 34.65-42.2c17.35-22.05 29.23-22.31 33.35-17.89 3 3.24 3.89 9.16-0.57 20.07s-61.98 201.37-65.43 219.23-0.1 35.47 23.24 48.31c26.16 14.41 63.55 1.28 88.35-19.55s47.12-56 47.12-56v-29.31s-34.22 45.63-49.6 58.53-24.8 3-21.82-7.44 63.47-209.31 68.43-223.14 2-41.67-20.84-54.56-49.69-0.81-73.4 12.89c-30.15 17.38-63.48 63.22-63.48 63.22z"/>
</svg>
