<?xml version="1.0" encoding="UTF-8" standalone="no"?>
<svg
   id="Layer_1"
   data-name="Layer 1"
   viewBox="0 0 512.00002 512.00001"
   version="1.1"
   sodipodi:docname="IcoExit.svg"
   width="512"
   height="512"
   inkscape:version="1.2.2 (b0a8486, 2022-12-01)"
   xmlns:inkscape="http://www.inkscape.org/namespaces/inkscape"
   xmlns:sodipodi="http://sodipodi.sourceforge.net/DTD/sodipodi-0.dtd"
   xmlns="http://www.w3.org/2000/svg"
   xmlns:svg="http://www.w3.org/2000/svg">
  <sodipodi:namedview
     id="namedview2053"
     pagecolor="#ffffff"
     bordercolor="#000000"
     borderopacity="0.25"
     inkscape:showpageshadow="2"
     inkscape:pageopacity="0.0"
     inkscape:pagecheckerboard="0"
     inkscape:deskcolor="#d1d1d1"
     showgrid="false"
     inkscape:zoom="1.3690081"
     inkscape:cx="248.355"
     inkscape:cy="248.355"
     inkscape:window-width="1440"
     inkscape:window-height="900"
     inkscape:window-x="0"
     inkscape:window-y="0"
     inkscape:window-maximized="0"
     inkscape:current-layer="Layer_1" />
  <defs
     id="defs2042">
    <style
       id="style2040">.cls-1{fill:#fff;}.cls-2{fill:#2ab24b;}.cls-3{fill:#0a79bf;}</style>
  </defs>
  <path
     class="cls-1"
     d="M 385.49,237.37 255.8,109.75 a 15.72,15.72 0 0 0 -22.25,0 L 193.27,150 a 15.72,15.72 0 0 0 0,22.25 L 226.94,206 H 23.73 A 15.73,15.73 0 0 0 8,221.69 v 61.5 a 15.73,15.73 0 0 0 15.73,15.73 H 227.5 l -34.23,34.23 a 15.73,15.73 0 0 0 0,22.26 l 40.28,40.28 a 15.72,15.72 0 0 0 22.25,0 L 386.07,268.13 c 5.05,-5.67 6.81,-8.06 6.81,-15.9 0,-7.84 -7.39,-14.86 -7.39,-14.86 z"
     id="path2044" />
  <path
     class="cls-1"
     d="M 73.07,500.71 A 65.07,65.07 0 0 1 8,435.64 V 325.21 a 15.74,15.74 0 0 1 15.73,-15.74 h 57 a 15.74,15.74 0 0 1 15.73,15.74 v 87.06 H 416.92 V 92.44 H 96.44 v 87.07 a 15.73,15.73 0 0 1 -15.73,15.73 h -57 A 15.73,15.73 0 0 1 8,179.51 V 69.07 A 65.07,65.07 0 0 1 73.07,4 h 367.22 a 65.07,65.07 0 0 1 65.07,65.07 v 366.57 a 65.07,65.07 0 0 1 -65.07,65.07 z"
     id="path2046" />
  <polygon
     class="cls-2"
     points="264.88,221.08 19.08,221.08 19.08,276.05 265.44,276.05 201.09,340.41 236.77,376.08 364,248.85 364,248.84 236.77,121.61 201.09,157.28 "
     id="polygon2048"
     transform="translate(8,4)" />
  <path
     class="cls-3"
     d="M 27.08,69.2 V 176.37 H 77.54 V 73.58 H 436 V 431.39 H 77.54 V 328.59 H 27.08 v 107.18 a 46.08,46.08 0 0 0 46.08,46.08 h 367.22 a 46.08,46.08 0 0 0 46.08,-46.08 V 69.2 A 46.08,46.08 0 0 0 440.38,23.12 H 73.16 A 46.08,46.08 0 0 0 27.08,69.2 Z"
     id="path2050" />
</svg>
