<?xml version="1.0" encoding="UTF-8" standalone="no"?>
<svg
   id="Layer_1"
   data-name="Layer 1"
   viewBox="0 0 511.99999 512"
   version="1.1"
   sodipodi:docname="IcoFilterB.svg"
   width="512"
   height="512"
   inkscape:version="1.2.2 (b0a8486, 2022-12-01)"
   xmlns:inkscape="http://www.inkscape.org/namespaces/inkscape"
   xmlns:sodipodi="http://sodipodi.sourceforge.net/DTD/sodipodi-0.dtd"
   xmlns="http://www.w3.org/2000/svg"
   xmlns:svg="http://www.w3.org/2000/svg">
  <sodipodi:namedview
     id="namedview2221"
     pagecolor="#ffffff"
     bordercolor="#000000"
     borderopacity="0.25"
     inkscape:showpageshadow="2"
     inkscape:pageopacity="0.0"
     inkscape:pagecheckerboard="0"
     inkscape:deskcolor="#d1d1d1"
     showgrid="false"
     inkscape:zoom="0.99239436"
     inkscape:cx="219.67074"
     inkscape:cy="222.69373"
     inkscape:window-width="1440"
     inkscape:window-height="900"
     inkscape:window-x="0"
     inkscape:window-y="0"
     inkscape:window-maximized="0"
     inkscape:current-layer="Layer_1" />
  <defs
     id="defs2208">
    <style
       id="style2206">.cls-1{fill:#fff;}.cls-2{fill:#356b98;}.cls-3{fill:#285886;}.cls-4{fill:#0a79bf;}</style>
  </defs>
  <path
     class="cls-1"
     d="M 409,451.94 A 42.47,42.47 0 0 1 378.76,439.41 L 276.25,336.93 a 146.59,146.59 0 0 1 -69.16,17.25 C 126,354.18 60,288.2 60,207.09 60,125.98 126,60 207.09,60 c 81.09,0 147.09,66 147.09,147.09 A 146.64,146.64 0 0 1 336.8,276.5 l 102.42,102.43 a 42.77,42.77 0 0 1 -30.24,73 z"
     id="path2210" />
  <path
     class="cls-2"
     d="m 275.44656,314.07849 38.43832,-38.43833 114.31795,114.31796 a 27.18,27.18 0 0 1 -0.0353,38.40297 v 0 a 27.18,27.18 0 0 1 -38.43833,0 z"
     id="path2212" />
  <path
     class="cls-3"
     d="m 278.74,317.37 6.79,6.79 A 141.44,141.44 0 0 0 324,285.77 l -6.79,-6.8 a 132.34,132.34 0 0 1 -38.47,38.4 z"
     id="path2214" />
  <path
     class="cls-4"
     d="m 207.09,75.59 a 131.5,131.5 0 1 0 131.5,131.5 131.51,131.51 0 0 0 -131.5,-131.5 z m 0,221.12 a 89.62,89.62 0 1 1 89.62,-89.62 89.62,89.62 0 0 1 -89.62,89.62 z"
     id="path2216" />
  <path
     class="cls-4"
     d="M 171.48,246.09 V 168 h -3.12 q -7.2,0 -10.27,-2.77 a 10.11,10.11 0 0 1 0,-14.51 q 3.06,-2.78 10.27,-2.78 h 50.06 q 17.93,0 28.83,10 10.9,10 10.91,23.72 a 30.06,30.06 0 0 1 -2.54,12.27 32.76,32.76 0 0 1 -7.69,10.61 q 9.45,5.66 14.17,13.2 a 31.53,31.53 0 0 1 4.72,17.09 30,30 0 0 1 -3.4,14.12 23.41,23.41 0 0 1 -6.24,7.89 40.3,40.3 0 0 1 -12.18,6.63 q -7.22,2.58 -18,2.58 h -58.64 q -7.2,0 -10.27,-2.77 A 9.31,9.31 0 0 1 155,256 a 9.13,9.13 0 0 1 3.12,-7.15 q 3.1,-2.79 10.22,-2.78 z m 20,-49.08 h 21.92 q 11.77,0 19.57,-5.95 5.26,-4 5.26,-9.93 0,-5.25 -5,-9.2 -5,-3.95 -15.78,-4 h -26 z m 0,49.08 h 34.48 q 12.18,0 17.14,-3.6 a 9,9 0 0 0 3.8,-7.79 q 0,-6 -7.5,-11.89 -7.5,-5.89 -21.56,-5.81 h -26.4 z"
     id="path2218" />
</svg>
