<?xml version="1.0" encoding="UTF-8" standalone="no"?>
<svg
   id="Layer_1"
   data-name="Layer 1"
   viewBox="0 0 512 512"
   version="1.1"
   sodipodi:docname="IcoOpen.svg"
   width="512"
   height="512"
   inkscape:version="1.2.2 (b0a8486, 2022-12-01)"
   xmlns:inkscape="http://www.inkscape.org/namespaces/inkscape"
   xmlns:sodipodi="http://sodipodi.sourceforge.net/DTD/sodipodi-0.dtd"
   xmlns="http://www.w3.org/2000/svg"
   xmlns:svg="http://www.w3.org/2000/svg">
  <sodipodi:namedview
     id="namedview2628"
     pagecolor="#ffffff"
     bordercolor="#000000"
     borderopacity="0.25"
     inkscape:showpageshadow="2"
     inkscape:pageopacity="0.0"
     inkscape:pagecheckerboard="0"
     inkscape:deskcolor="#d1d1d1"
     showgrid="false"
     inkscape:zoom="1.1358358"
     inkscape:cx="247.39491"
     inkscape:cy="219.22182"
     inkscape:window-width="1440"
     inkscape:window-height="900"
     inkscape:window-x="0"
     inkscape:window-y="0"
     inkscape:window-maximized="0"
     inkscape:current-layer="Layer_1" />
  <defs
     id="defs2603">
    <style
       id="style2601">.cls-1{fill:#fff;}.cls-2{fill:#fccd10;}.cls-3{fill:#fdb715;}.cls-4{fill:#fdc716;}.cls-5{fill:#d3d3d3;}</style>
  </defs>
  <path
     class="cls-1"
     d="m 240.00959,460.53 h 204.77 c 23.15,0 24.14,-11.24 24.14,-11.24 21,0 22.45,-14.88 23.77,-25.13 1.32,-10.25 9.95,-184.73 11.22,-214.51 0.88,-20.43 -10.32,-22.86 -10.32,-22.86 v -40.94 c 0,-13.89 -7.76,-21.34 -27.41,-21.34 h -223.58 c 0,0 -24.73,-28.12 -35.23,-40.31 -10.5,-12.19 -12.87,-12.2 -30.83,-12.2 H 43.119591 c -12.58,0 -23.42,4.74 -23.42,25.75 0,21.01 -0.21,115.49 -0.21,115.49 0,0 -13.8899999,3.94 -12.2299999,33.7 1.66,29.76 10.5799999,167 11.8999999,177.22 1.32,10.22 1.65,25.13 27.77,25.13 0,0 1,11.24 24.14,11.24 H 275.83959"
     id="path2605" />
  <polygon
     class="cls-2"
     points="179.91,20.68 226.43,73.54 464.95,73.54 464.95,132.75 445.5,132.75 445.5,92.36 58.11,92.36 58.11,159.82 34.43,159.82 34.43,20.68 "
     id="polygon2607"
     transform="translate(7.1195911,72)" />
  <polygon
     class="cls-3"
     points="22.42,173.07 34.43,356.57 82.35,356.57 "
     id="polygon2609"
     transform="translate(7.1195911,72)" />
  <polygon
     class="cls-3"
     points="477.18,145.86 465.17,356.57 417.25,356.57 "
     id="polygon2611"
     transform="translate(7.1195911,72)" />
  <path
     class="cls-4"
     d="m 281.54959,245.07 41.87,183.5 V 217.86 c 0,-1.06 -41.87,27.21 -41.87,27.21 z"
     id="path2613" />
  <polygon
     class="cls-2"
     points="417.25,356.57 316.3,356.57 316.3,145.86 477.18,145.86 "
     id="polygon2615"
     transform="translate(7.1195911,72)" />
  <polygon
     class="cls-2"
     points="82.35,356.57 316.3,356.57 274.43,173.07 22.42,173.07 "
     id="polygon2617"
     transform="translate(7.1195911,72)" />
  <rect
     class="cls-5"
     x="88.589592"
     y="184.97"
     width="27.690001"
     height="11.47"
     id="rect2619" />
  <rect
     class="cls-5"
     x="88.589592"
     y="213.24001"
     width="27.690001"
     height="11.47"
     id="rect2621" />
  <rect
     class="cls-5"
     x="141.37959"
     y="184.97"
     width="286.81"
     height="11.47"
     id="rect2623" />
  <polygon
     class="cls-5"
     points="134.26,141.25 296.19,141.25 277.66,152.72 134.26,152.72 "
     id="polygon2625"
     transform="translate(7.1195911,72)" />
</svg>
