<?xml version="1.0" encoding="UTF-8" standalone="no"?>
<svg
   id="Layer_1"
   data-name="Layer 1"
   viewBox="0 0 511.99999 511.99999"
   version="1.1"
   sodipodi:docname="IcoSettings.svg"
   width="512"
   height="512"
   inkscape:version="1.2.2 (b0a8486, 2022-12-01)"
   xmlns:inkscape="http://www.inkscape.org/namespaces/inkscape"
   xmlns:sodipodi="http://sodipodi.sourceforge.net/DTD/sodipodi-0.dtd"
   xmlns="http://www.w3.org/2000/svg"
   xmlns:svg="http://www.w3.org/2000/svg">
  <sodipodi:namedview
     id="namedview2993"
     pagecolor="#ffffff"
     bordercolor="#000000"
     borderopacity="0.25"
     inkscape:showpageshadow="2"
     inkscape:pageopacity="0.0"
     inkscape:pagecheckerboard="0"
     inkscape:deskcolor="#d1d1d1"
     showgrid="false"
     inkscape:zoom="0.85962733"
     inkscape:cx="419.94942"
     inkscape:cy="252.43497"
     inkscape:window-width="1440"
     inkscape:window-height="900"
     inkscape:window-x="0"
     inkscape:window-y="0"
     inkscape:window-maximized="0"
     inkscape:current-layer="Layer_1" />
  <defs
     id="defs2986">
    <style
       id="style2984">.cls-1{fill:#fff;}.cls-2{fill:#2ab24b;}</style>
  </defs>
  <path
     class="cls-1"
     d="M 241.52,477.45 A 28.18,28.18 0 0 1 213.38,449.3 V 420.35 A 169.5,169.5 0 0 1 172.65,403.51 L 152.2,424 a 28.15,28.15 0 0 1 -39.8,0 L 89.49,401.05 a 28.16,28.16 0 0 1 0,-39.8 l 20.35,-20.36 a 170,170 0 0 1 -17,-40.82 H 64.15 A 28.18,28.18 0 0 1 36,271.92 v -32.4 A 28.18,28.18 0 0 1 64.15,211.38 H 92.7 a 169.49,169.49 0 0 1 17,-41 L 89.49,150.2 a 28.16,28.16 0 0 1 0,-39.8 L 112.4,87.49 a 28.13,28.13 0 0 1 39.8,0 l 20.13,20.12 A 169.47,169.47 0 0 1 214.74,90.24 V 62.15 A 28.18,28.18 0 0 1 242.89,34 h 32.39 a 28.18,28.18 0 0 1 28.15,28.15 V 91 a 169.88,169.88 0 0 1 40.49,17.16 l 20.69,-20.69 a 28.13,28.13 0 0 1 39.8,0 l 22.91,22.93 a 28.18,28.18 0 0 1 0,39.8 l -21.15,21.15 a 170,170 0 0 1 16.39,40 h 28.74 a 28.18,28.18 0 0 1 28.15,28.14 v 32.4 a 28.18,28.18 0 0 1 -28.15,28.15 h -28.88 a 169.83,169.83 0 0 1 -16.94,40.7 L 426,361.25 a 28.18,28.18 0 0 1 0,39.8 L 403.05,424 a 28.15,28.15 0 0 1 -39.8,0 l -20.52,-20.52 a 170.22,170.22 0 0 1 -40.66,16.86 v 29 a 28.18,28.18 0 0 1 -28.15,28.15 z m 16.11,-280.83 a 58.85,58.85 0 1 0 58.85,58.85 58.92,58.92 0 0 0 -58.85,-58.85 z"
     id="path2988" />
  <path
     class="cls-2"
     d="m 451.3,228.39 h -31.66 a 13.19,13.19 0 0 1 -12.83,-10 153,153 0 0 0 -16.79,-41 13.19,13.19 0 0 1 2.08,-16 l 23.19,-23.2 a 11.14,11.14 0 0 0 0,-15.75 l -22.9,-22.91 a 11.15,11.15 0 0 0 -15.76,0 l -22.77,22.75 a 13.17,13.17 0 0 1 -16.19,2 153,153 0 0 0 -41.45,-17.57 13.17,13.17 0 0 1 -9.8,-12.79 V 62.15 A 11.13,11.13 0 0 0 275.28,51 h -32.39 a 11.13,11.13 0 0 0 -11.14,11.14 v 31 a 13.26,13.26 0 0 1 -10.19,12.88 152.93,152.93 0 0 0 -43.1,17.68 13.19,13.19 0 0 1 -16.1,-2 L 140.17,99.51 a 11.14,11.14 0 0 0 -15.75,0 l -22.91,22.91 a 11.14,11.14 0 0 0 0,15.75 l 22.23,22.23 a 13.2,13.2 0 0 1 2,16.1 152.68,152.68 0 0 0 -17.33,41.95 13.2,13.2 0 0 1 -12.83,9.94 H 64.15 A 11.13,11.13 0 0 0 53,239.52 v 32.4 a 11.14,11.14 0 0 0 11.14,11.14 h 31.6 a 13.19,13.19 0 0 1 12.83,9.94 152.49,152.49 0 0 0 17.43,41.73 13.2,13.2 0 0 1 -2,16.12 l -22.49,22.42 a 11.14,11.14 0 0 0 0,15.75 l 22.91,22.91 a 11.14,11.14 0 0 0 15.75,0 l 22.51,-22.51 a 13.2,13.2 0 0 1 16.09,-2 152.75,152.75 0 0 0 41.69,17.23 13.19,13.19 0 0 1 9.93,12.83 v 31.82 a 11.13,11.13 0 0 0 11.13,11.14 h 32.4 a 11.14,11.14 0 0 0 11.14,-11.14 v -31.91 a 13.18,13.18 0 0 1 9.94,-12.82 152.84,152.84 0 0 0 41.62,-17.25 13.2,13.2 0 0 1 16.1,2 l 22.58,22.58 a 11.14,11.14 0 0 0 15.75,0 L 413.93,389 a 11.14,11.14 0 0 0 0,-15.75 l -22.54,-22.54 a 13.2,13.2 0 0 1 -2,-16.11 152.7,152.7 0 0 0 17.3,-41.6 13.18,13.18 0 0 1 12.82,-9.89 h 31.79 a 11.14,11.14 0 0 0 11.14,-11.14 v -32.4 A 11.13,11.13 0 0 0 451.3,228.39 Z M 257.63,331.32 a 75.86,75.86 0 1 1 75.85,-75.85 75.86,75.86 0 0 1 -75.85,75.85 z"
     id="path2990" />
</svg>
