<?xml version="1.0" encoding="UTF-8" standalone="no"?>
<svg
   id="Layer_1"
   data-name="Layer 1"
   viewBox="0 0 511.99998 512.00002"
   version="1.1"
   sodipodi:docname="LogView.svg"
   width="512"
   height="512"
   inkscape:version="1.2.2 (b0a8486, 2022-12-01)"
   xmlns:inkscape="http://www.inkscape.org/namespaces/inkscape"
   xmlns:sodipodi="http://sodipodi.sourceforge.net/DTD/sodipodi-0.dtd"
   xmlns="http://www.w3.org/2000/svg"
   xmlns:svg="http://www.w3.org/2000/svg">
  <sodipodi:namedview
     id="namedview3345"
     pagecolor="#ffffff"
     bordercolor="#000000"
     borderopacity="0.25"
     inkscape:showpageshadow="2"
     inkscape:pageopacity="0.0"
     inkscape:pagecheckerboard="0"
     inkscape:deskcolor="#d1d1d1"
     showgrid="false"
     inkscape:zoom="1.1098109"
     inkscape:cx="332.48908"
     inkscape:cy="242.38364"
     inkscape:window-width="1440"
     inkscape:window-height="900"
     inkscape:window-x="0"
     inkscape:window-y="0"
     inkscape:window-maximized="0"
     inkscape:current-layer="Layer_1" />
  <defs
     id="defs3316">
    <style
       id="style3314">.cls-1{fill:#00b2b1;}.cls-2{fill:#fff;}.cls-3{fill:#e2e6e6;}.cls-4{fill:#999;}</style>
  </defs>
  <rect
     class="cls-1"
     y="69.900002"
     width="287.73001"
     height="381.39999"
     id="rect3318"
     x="116" />
  <polygon
     class="cls-2"
     points="257.58,58.57 30.15,58.57 30.15,372.92 202.93,372.92 257.58,316.56 "
     id="polygon3320"
     transform="translate(116,46)" />
  <polygon
     class="cls-3"
     points="257.58,316.56 203.02,372.92 203.02,316.56 "
     id="polygon3322"
     transform="translate(116,46)" />
  <circle
     class="cls-3"
     cx="190.8"
     cy="373.25"
     r="21.440001"
     id="circle3324" />
  <rect
     class="cls-3"
     x="159.84"
     y="217.31"
     width="199.98"
     height="5.8400002"
     id="rect3326" />
  <rect
     class="cls-3"
     x="159.84"
     y="199.35001"
     width="199.98"
     height="5.8400002"
     id="rect3328" />
  <rect
     class="cls-3"
     x="159.84"
     y="181.38"
     width="199.98"
     height="5.8400002"
     id="rect3330" />
  <rect
     class="cls-3"
     x="159.84"
     y="163.42"
     width="199.98"
     height="5.8400002"
     id="rect3332" />
  <rect
     class="cls-3"
     x="159.84"
     y="145.45"
     width="199.98"
     height="5.8400002"
     id="rect3334" />
  <rect
     class="cls-3"
     x="159.84"
     y="127.49"
     width="199.98"
     height="5.8400002"
     id="rect3336" />
  <rect
     class="cls-3"
     x="241.87"
     width="36"
     height="65.540001"
     id="rect3338"
     y="46" />
  <polygon
     class="cls-4"
     points="125.86,23.9 101.35,23.9 125.86,4.57 "
     id="polygon3340"
     transform="translate(116,46)" />
  <polygon
     class="cls-4"
     points="161.87,23.9 186.38,23.9 161.87,4.57 "
     id="polygon3342"
     transform="translate(116,46)" />
</svg>
